<?xml version="1.0" encoding="UTF-8" standalone="no"?>
<svg width="600px" height="104px" viewBox="0 0 600 104" version="1.1" xmlns="http://www.w3.org/2000/svg" xmlns:xlink="http://www.w3.org/1999/xlink">
    <!-- Generator: Sketch 39.1 (31720) - http://www.bohemiancoding.com/sketch -->
    <title>wysiwyg.css copy</title>
    <desc>Created with Sketch.</desc>
    <defs></defs>
    <g id="Page-1" stroke="none" stroke-width="1" fill="none" fill-rule="evenodd">
        <g id="Artboard" transform="translate(0.000000, -100.000000)" fill="#232323">
            <g id="Header" transform="translate(0.000000, -40.000000)">
                <g id="Group-4" transform="translate(0.000000, 40.000000)">
                    <path d="M48.1421648,120.893915 L34.6795907,120.893915 L24.8788368,156.004308 L24.6634356,156.004308 L16.2627894,120.893915 L0,120.893915 L15.5088853,177.544426 L31.9870759,177.544426 L41.0339257,145.126548 L41.2493269,145.126548 L50.188476,177.544426 L66.3435649,177.544426 L82.6063543,120.893915 L66.6666667,120.893915 L57.7275175,155.896607 L57.4044157,155.896607 L48.1421648,120.893915 Z M85.083468,120.893915 L105.115778,174.205708 L96.0689284,198.22294 L109.746904,203.500269 L141.626279,120.893915 L125.040388,120.893915 L113.408724,154.6042 L113.193323,154.6042 L101.77706,120.893915 L85.083468,120.893915 Z M188.583737,127.032849 C183.306408,122.078621 176.521271,119.601508 168.982229,119.601508 C158.642973,119.601508 148.734518,125.41734 148.734518,136.941303 C148.734518,146.849758 156.165859,150.726979 162.950996,153.634895 C168.551427,156.112009 173.721055,157.835218 173.721055,161.82014 C173.721055,165.266559 169.628433,166.774367 166.505116,166.774367 C161.012386,166.774367 157.458266,164.297254 153.150242,160.096931 L144.426494,169.14378 C150.673129,175.390415 158.427571,178.836834 167.25902,178.836834 C178.24448,178.836834 189.01454,173.128702 189.01454,160.635433 C189.01454,149.865374 179.752289,146.203554 172.428648,143.187938 C167.689822,141.249327 163.489499,139.418417 163.489499,135.864297 C163.489499,133.171782 166.074313,131.556274 168.982229,131.556274 C173.290253,131.556274 177.275175,133.710285 180.183091,136.2951 L188.583737,127.032849 Z M216.478191,177.544426 L216.478191,120.893915 L201.184707,120.893915 L201.184707,177.544426 L216.478191,177.544426 Z M216.478191,113.031772 L216.478191,100 L201.184707,100 L201.184707,113.031772 L216.478191,113.031772 Z M272.590199,120.893915 L259.127625,120.893915 L249.326871,156.004308 L249.11147,156.004308 L240.710824,120.893915 L224.448034,120.893915 L239.95692,177.544426 L256.43511,177.544426 L265.48196,145.126548 L265.697361,145.126548 L274.636511,177.544426 L290.791599,177.544426 L307.054389,120.893915 L291.114701,120.893915 L282.175552,155.896607 L281.85245,155.896607 L272.590199,120.893915 Z M309.531502,120.893915 L329.563813,174.205708 L320.516963,198.22294 L334.194938,203.500269 L366.074313,120.893915 L349.488422,120.893915 L337.856758,154.6042 L337.641357,154.6042 L326.225094,120.893915 L309.531502,120.893915 Z M428.325256,120.893915 L415.078083,120.893915 L413.785676,127.571352 C409.693053,121.647819 402.261712,119.601508 396.553581,119.601508 C381.152396,119.601508 369.951535,132.525579 369.951535,148.357566 C369.951535,164.728056 381.367798,177.544426 396.33818,177.544426 C401.83091,177.544426 408.831449,175.713516 413.031772,170.328487 L413.031772,175.498115 C413.031772,184.544965 407.21594,188.852989 399.246096,188.852989 C393.645665,188.852989 385.675821,186.483576 379.213786,181.637049 L373.613355,194.238018 C381.583199,199.515347 391.060851,201.992461 399.784599,201.992461 C410.123856,201.992461 419.816909,198.22294 424.771136,189.606893 C427.140549,185.621971 428.325256,180.667744 428.325256,174.52881 L428.325256,120.893915 Z M413.031772,156.973613 C409.693053,162.574044 404.415724,164.404954 399.676898,164.404954 C390.95315,164.404954 385.568121,157.081314 385.568121,148.788368 C385.568121,140.926225 390.091546,132.74098 399.892299,132.74098 C404.631125,132.74098 409.15455,134.356489 413.031772,138.879914 L413.031772,156.973613 Z M453.204093,177.544426 L453.204093,166.666667 L444.264943,166.666667 L444.264943,177.544426 L453.204093,177.544426 Z M505.546581,168.712978 C502.961766,170.651589 497.792138,172.159397 494.453419,172.159397 C482.283253,172.159397 474.744211,163.112547 474.744211,151.265482 C474.744211,139.95692 482.283253,130.371567 494.238018,130.371567 C497.792138,130.371567 502.315563,131.448573 505.223479,133.387184 L507.915994,127.24825 C504.146473,125.094238 499.623048,123.69413 494.776521,123.69413 C478.729133,123.69413 467.20517,135.864297 467.20517,151.265482 C467.20517,166.989768 478.621432,178.836834 494.991922,178.836834 C500.484653,178.836834 505.008078,177.221325 509.316101,174.313409 L505.546581,168.712978 Z M550.457728,128.756058 C546.365105,125.41734 541.518578,123.69413 536.025848,123.69413 C527.1944,123.69413 519.655358,128.756058 519.655358,137.802908 C519.655358,147.388261 527.086699,150.511578 533.979537,153.311793 C539.903069,155.681206 545.5035,157.835218 545.5035,163.866451 C545.5035,169.897684 539.579968,172.590199 534.51804,172.590199 C529.563813,172.590199 525.578891,170.436187 522.455574,167.097469 L518.039849,171.728595 C522.347873,176.467421 528.379106,178.836834 534.302639,178.836834 C543.134087,178.836834 552.827141,173.236403 552.827141,163.974152 C552.827141,154.6042 546.472806,150.94238 540.01077,148.249865 C533.333333,145.44965 526.548196,143.403339 526.548196,137.156704 C526.548196,132.202477 531.717824,129.940765 535.810447,129.940765 C539.687668,129.940765 543.56489,131.448573 546.472806,133.710285 L550.457728,128.756058 Z M597.630587,128.756058 C593.537964,125.41734 588.691438,123.69413 583.198708,123.69413 C574.367259,123.69413 566.828218,128.756058 566.828218,137.802908 C566.828218,147.388261 574.259558,150.511578 581.152396,153.311793 C587.075929,155.681206 592.67636,157.835218 592.67636,163.866451 C592.67636,169.897684 586.752827,172.590199 581.690899,172.590199 C576.736672,172.590199 572.75175,170.436187 569.628433,167.097469 L565.212709,171.728595 C569.520732,176.467421 575.551966,178.836834 581.475498,178.836834 C590.306947,178.836834 600,173.236403 600,163.974152 C600,154.6042 593.645665,150.94238 587.18363,148.249865 C580.506193,145.44965 573.721055,143.403339 573.721055,137.156704 C573.721055,132.202477 578.890684,129.940765 582.983306,129.940765 C586.860528,129.940765 590.737749,131.448573 593.645665,133.710285 L597.630587,128.756058 Z" id="wysiwyg.css-copy"></path>
                </g>
            </g>
        </g>
    </g>
</svg>